<mxfile host="app.diagrams.net" modified="2024-06-02T04:35:20.248Z" agent="Mozilla/5.0 (Windows NT 10.0; Win64; x64) AppleWebKit/537.36 (KHTML, like Gecko) Chrome/125.0.0.0 Safari/537.36" version="24.3.1" etag="Se2mlA3mxXbx7KPzbatn" type="github">
  <diagram name="Page-1" id="ad1BBPJBHhb4vZdSpeA0">
    <mxGraphModel>
      <root>
        <mxCell id="0" />
        <mxCell id="1" parent="0" />
      </root>
    </mxGraphModel>
  </diagram>
</mxfile>
